HIERARCHY
ROOT Hips
{
    OFFSET   0.000000   0.000000   0.000000
    CHANNELS 6 Xposition Yposition Zposition Zrotation Xrotation Yrotation
    JOINT Chest
    {
        OFFSET   0.000000   8.007230   0.000000
        CHANNELS 3 Zrotation Xrotation Yrotation
        JOINT Chest2
        {
            OFFSET   0.000000  22.077100   0.000000
            CHANNELS 3 Zrotation Xrotation Yrotation
            JOINT Neck
            {
                OFFSET   0.000000  23.254800  -0.000021
                CHANNELS 3 Zrotation Xrotation Yrotation
                JOINT Head
                {
                    OFFSET   0.000000  14.370000   1.956610
                    CHANNELS 3 Zrotation Xrotation Yrotation
                    End Site
                    {
                        OFFSET   0.000000  19.566000   0.000000
                    }
                }
            }
            JOINT LeftCollar
            {
                OFFSET   3.911900  19.017000  -0.467063
                CHANNELS 3 Zrotation Xrotation Yrotation
                JOINT LeftShoulder
                {
                    OFFSET  10.383700   0.000000   0.000000
                    CHANNELS 3 Zrotation Xrotation Yrotation
                    JOINT LeftElbow
                    {
                        OFFSET  26.662100   0.001529   0.000325
                        CHANNELS 3 Zrotation Xrotation Yrotation
                        JOINT LeftWrist
                        {
                            OFFSET  28.869000  -0.000011  -0.000096
                            CHANNELS 3 Zrotation Xrotation Yrotation
                            JOINT LeftFinger0
                            {
                                OFFSET   2.044650  -2.323460   3.252850
                                CHANNELS 3 Zrotation Xrotation Yrotation
                                JOINT LeftFinger01
                                {
                                    OFFSET   3.088130   0.000000   0.000000
                                    CHANNELS 3 Zrotation Xrotation Yrotation
                                    JOINT LeftFinger02
                                    {
                                        OFFSET   2.639460   0.000000   0.000000
                                        CHANNELS 3 Zrotation Xrotation Yrotation
                                        End Site
                                        {
                                            OFFSET   2.582190   0.000000   0.000000
                                        }
                                    }
                                }
                            }
                            JOINT LeftFinger1
                            {
                                OFFSET   8.364480   0.000000   3.252850
                                CHANNELS 3 Zrotation Xrotation Yrotation
                                JOINT LeftFinger11
                                {
                                    OFFSET   4.646930   0.000000   0.000000
                                    CHANNELS 3 Zrotation Xrotation Yrotation
                                    JOINT LeftFinger12
                                    {
                                        OFFSET   2.323460   0.000000   0.000000
                                        CHANNELS 3 Zrotation Xrotation Yrotation
                                        End Site
                                        {
                                            OFFSET   2.273050   0.000000   0.000000
                                        }
                                    }
                                }
                            }
                            JOINT LeftFinger2
                            {
                                OFFSET   8.364480   0.000016   1.078090
                                CHANNELS 3 Zrotation Xrotation Yrotation
                                JOINT LeftFinger21
                                {
                                    OFFSET   5.111620   0.000000   0.000000
                                    CHANNELS 3 Zrotation Xrotation Yrotation
                                    JOINT LeftFinger22
                                    {
                                        OFFSET   2.788160   0.000017   0.000000
                                        CHANNELS 3 Zrotation Xrotation Yrotation
                                        End Site
                                        {
                                            OFFSET   2.727660   0.000000   0.000000
                                        }
                                    }
                                }
                            }
                            JOINT LeftFinger3
                            {
                                OFFSET   7.899780   0.000015  -1.078090
                                CHANNELS 3 Zrotation Xrotation Yrotation
                                JOINT LeftFinger31
                                {
                                    OFFSET   4.646920   0.000000   0.000000
                                    CHANNELS 3 Zrotation Xrotation Yrotation
                                    JOINT LeftFinger32
                                    {
                                        OFFSET   2.323470   0.000000   0.000000
                                        CHANNELS 3 Zrotation Xrotation Yrotation
                                        End Site
                                        {
                                            OFFSET   2.273050   0.000000   0.000000
                                        }
                                    }
                                }
                            }
                            JOINT LeftFinger4
                            {
                                OFFSET   7.435090   0.000000  -3.252850
                                CHANNELS 3 Zrotation Xrotation Yrotation
                                JOINT LeftFinger41
                                {
                                    OFFSET   3.717550   0.000000   0.000000
                                    CHANNELS 3 Zrotation Xrotation Yrotation
                                    JOINT LeftFinger42
                                    {
                                        OFFSET   1.858760   0.000000   0.000000
                                        CHANNELS 3 Zrotation Xrotation Yrotation
                                        End Site
                                        {
                                            OFFSET   1.818440   0.000000   0.000000
                                        }
                                    }
                                }
                            }
                        }
                    }
                }
            }
            JOINT RightCollar
            {
                OFFSET  -3.911900  19.017000  -0.467062
                CHANNELS 3 Zrotation Xrotation Yrotation
                JOINT RightShoulder
                {
                    OFFSET -10.383700   0.000015   0.000000
                    CHANNELS 3 Zrotation Xrotation Yrotation
                    JOINT RightElbow
                    {
                        OFFSET -26.662100   0.001341   0.000385
                        CHANNELS 3 Zrotation Xrotation Yrotation
                        JOINT RightWrist
                        {
                            OFFSET -28.869000   0.000025  -0.000080
                            CHANNELS 3 Zrotation Xrotation Yrotation
                            JOINT RightFinger0
                            {
                                OFFSET  -2.044650  -2.323490   3.252850
                                CHANNELS 3 Zrotation Xrotation Yrotation
                                JOINT RightFinger01
                                {
                                    OFFSET  -3.088130   0.000000   0.000000
                                    CHANNELS 3 Zrotation Xrotation Yrotation
                                    JOINT RightFinger02
                                    {
                                        OFFSET  -2.639460   0.000000   0.000000
                                        CHANNELS 3 Zrotation Xrotation Yrotation
                                        End Site
                                        {
                                            OFFSET  -2.582190   0.000000   0.000000
                                        }
                                    }
                                }
                            }
                            JOINT RightFinger1
                            {
                                OFFSET  -8.364480   0.000000   3.252850
                                CHANNELS 3 Zrotation Xrotation Yrotation
                                JOINT RightFinger11
                                {
                                    OFFSET  -4.646930   0.000000   0.000000
                                    CHANNELS 3 Zrotation Xrotation Yrotation
                                    JOINT RightFinger12
                                    {
                                        OFFSET  -2.323470   0.000000   0.000000
                                        CHANNELS 3 Zrotation Xrotation Yrotation
                                        End Site
                                        {
                                            OFFSET  -2.273050   0.000000   0.000000
                                        }
                                    }
                                }
                            }
                            JOINT RightFinger2
                            {
                                OFFSET  -8.364480   0.000000   1.078090
                                CHANNELS 3 Zrotation Xrotation Yrotation
                                JOINT RightFinger21
                                {
                                    OFFSET  -5.111610   0.000000   0.000000
                                    CHANNELS 3 Zrotation Xrotation Yrotation
                                    JOINT RightFinger22
                                    {
                                        OFFSET  -2.788160   0.000000   0.000000
                                        CHANNELS 3 Zrotation Xrotation Yrotation
                                        End Site
                                        {
                                            OFFSET  -2.727660   0.000000   0.000000
                                        }
                                    }
                                }
                            }
                            JOINT RightFinger3
                            {
                                OFFSET  -7.899780   0.000000  -1.078090
                                CHANNELS 3 Zrotation Xrotation Yrotation
                                JOINT RightFinger31
                                {
                                    OFFSET  -4.646920   0.000000   0.000000
                                    CHANNELS 3 Zrotation Xrotation Yrotation
                                    JOINT RightFinger32
                                    {
                                        OFFSET  -2.323470   0.000000   0.000000
                                        CHANNELS 3 Zrotation Xrotation Yrotation
                                        End Site
                                        {
                                            OFFSET  -2.273050   0.000000   0.000000
                                        }
                                    }
                                }
                            }
                            JOINT RightFinger4
                            {
                                OFFSET  -7.435090   0.000000  -3.252850
                                CHANNELS 3 Zrotation Xrotation Yrotation
                                JOINT RightFinger41
                                {
                                    OFFSET  -3.717550   0.000000   0.000000
                                    CHANNELS 3 Zrotation Xrotation Yrotation
                                    JOINT RightFinger42
                                    {
                                        OFFSET  -1.858770   0.000000   0.000000
                                        CHANNELS 3 Zrotation Xrotation Yrotation
                                        End Site
                                        {
                                            OFFSET  -1.818440   0.000000   0.000000
                                        }
                                    }
                                }
                            }
                        }
                    }
                }
            }
        }
    }
    JOINT LeftHip
    {
        OFFSET   9.783010   0.000000   0.000000
        CHANNELS 3 Zrotation Xrotation Yrotation
        JOINT LeftKnee
        {
            OFFSET   0.000070 -41.789100   0.000028
            CHANNELS 3 Zrotation Xrotation Yrotation
            JOINT LeftAnkle
            {
                OFFSET   0.000087 -41.133200  -0.000100
                CHANNELS 3 Zrotation Xrotation Yrotation
                JOINT LeftToe
                {
                    OFFSET   0.000000  -6.358960  14.674500
                    CHANNELS 3 Zrotation Xrotation Yrotation
                    End Site
                    {
                        OFFSET   0.000000   0.000000   3.913200
                    }
                }
            }
        }
    }
    JOINT RightHip
    {
        OFFSET  -9.783020   0.000000   0.000000
        CHANNELS 3 Zrotation Xrotation Yrotation
        JOINT RightKnee
        {
            OFFSET   0.000044 -41.789100  -0.000870
            CHANNELS 3 Zrotation Xrotation Yrotation
            JOINT RightAnkle
            {
                OFFSET  -0.000090 -41.133200  -0.000245
                CHANNELS 3 Zrotation Xrotation Yrotation
                JOINT RightToe
                {
                    OFFSET   0.000000  -6.358960  14.674500
                    CHANNELS 3 Zrotation Xrotation Yrotation
                    End Site
                    {
                        OFFSET   0.000000   0.000000   3.913200
                    }
                }
            }
        }
    }
}
MOTION
Frames: 5
Frame Time:   0.016667
  1.472570  90.152000  -2.389830  -1.578520  -4.296600  -5.615710  -0.307361   3.930690  -0.419298  -0.587892   7.863470  -0.820319   1.359600  -0.221153  -0.000261   2.232030  -0.447833   8.652230  -7.231770  -1.698300   6.584970 -71.416000  14.169100  -1.234540  -3.023960  -6.329000 -18.503500  12.380900   0.670679   8.499760  48.948600  39.195100 -79.891200 -19.131500   0.000887   0.013690  -4.565760   0.002777   0.005785 -31.239300   5.175240  -8.458630 -25.872800   0.002374   0.000292 -18.111000   0.005359   0.000000 -28.762300   0.132021  -0.240376 -40.920100  -0.002726   0.002726 -27.252800  -0.000899   0.001578 -28.027500   0.037888  -0.071088 -32.181000  -0.005989   0.003947 -21.432600   0.000327   0.002561 -30.519200  -2.515200   4.257540 -45.919000  -0.006651   0.003682 -30.582000  -0.001522   0.001945  10.773400   2.432030   7.395680  68.053800   7.260000   2.955000   1.916120  -9.660270  13.054800 -16.443700 -15.199000  -0.183371 -38.668100  35.331100  73.977200  30.013600   0.000000  -0.006491  10.006800  -0.000883  -0.001313  34.573900   1.621080   2.350270  28.315200  -0.004786   0.001095  19.820600   0.009319   0.003593  28.686000  -2.137060  -3.899470  40.389200  -0.001653   0.004729  26.899200   0.005926   0.000718  28.575800  -3.764740  -6.873830  42.973500  -0.001794   0.007427  28.620300   0.008947   0.005878  40.950200  -5.151960  -5.908050  61.824500   0.000637   0.002126  41.175100   0.012958   0.005000  -0.031066   4.125000   1.965240   0.444756   0.800853  10.686900  -3.673470  -2.488090   6.401860  -0.000000   0.000000   0.000000   2.735710   2.620040  -4.807520  -1.435270   4.750710  -7.544220  -9.990240   0.893360   2.143130  -0.000000   0.000000  -0.000000
  1.465480  90.151800  -2.389530  -1.576760  -4.303730  -5.602690  -0.307450   3.934790  -0.419171  -0.588090   7.871700  -0.820025   1.353670  -0.210129  -0.000236   2.222740  -0.425309   8.660450  -7.236280  -1.687110   6.586420 -71.437300  14.237500  -1.234750  -2.998560  -6.381570 -18.585400  12.329300   0.612340   8.504730  48.908000  39.197500 -79.906900 -19.101800   0.000884   0.013668  -4.550880   0.002777   0.005793 -31.238500   5.193940  -8.484320 -25.875800   0.002372   0.000290 -18.113100   0.005360   0.000000 -28.762000   0.145586  -0.264920 -40.946300  -0.002722   0.002859 -27.270200  -0.000946   0.001653 -28.034000   0.056955  -0.106652 -32.223100  -0.005935   0.004017 -21.460600   0.000337   0.002607 -30.538600  -2.500220   4.229240 -45.946200  -0.006663   0.003776 -30.600100  -0.001560   0.001994  10.800100   2.400350   7.409360  68.060800   7.267990   2.936020   1.931790  -9.723610  13.087000 -16.483600 -15.202000  -0.204400 -38.445200  35.141900  73.765000  30.203000   0.000000  -0.006565  10.101400  -0.000888  -0.001321  34.593400   1.584410   2.295090  28.330000  -0.004795   0.001025  19.831000   0.009320   0.003603  28.681100  -2.172750  -3.965210  40.326400  -0.001665   0.004692  26.857400   0.005923   0.000673  28.559500  -3.789190  -6.926530  42.975700  -0.001765   0.007406  28.621800   0.008947   0.005875  40.940600  -5.186050  -5.954060  61.815300   0.000600   0.002081  41.169000   0.012989   0.004986  -0.030546   4.126200   1.974260   0.443203   0.808765  10.673300  -3.673660  -2.487900   6.396160   0.000000   0.000000  -0.000000   2.736000   2.625440  -4.804860  -1.427990   4.752270  -7.549230  -9.994100   0.892594   2.133050  -0.000000   0.000000  -0.000000
  1.454940  90.151600  -2.389220  -1.574400  -4.321670  -5.589740  -0.307477   3.947380  -0.419049  -0.588043   7.896940  -0.819765   1.342120  -0.199104  -0.000189   2.205030  -0.402762   8.690790  -7.250530  -1.675030   6.596830 -71.487800  14.370600  -1.234370  -2.994150  -6.499240 -18.823900  12.277400   0.553958   8.540140  48.868600  39.194600 -79.924500 -19.072000   0.000862   0.013645  -4.536000   0.002779   0.005801 -31.263500   5.212630  -8.510010 -25.896600   0.002370   0.000289 -18.127600   0.005363  -0.000000 -28.761700   0.159150  -0.289463 -40.972500  -0.002714   0.003080 -27.287700  -0.001024   0.001778 -28.040500   0.084131  -0.157598 -32.265200  -0.005811   0.004133 -21.488600   0.000362   0.002684 -30.558000  -2.485230   4.200950 -45.973400  -0.006692   0.003933 -30.618200  -0.001625   0.002076  10.828800   2.351830   7.429930  68.083600   7.298270   2.909650   1.966700  -9.822550  13.258400 -16.624000 -15.222700  -0.338049 -38.166600  34.828000  73.372800  30.392300   0.000000  -0.006729  10.196100  -0.000893  -0.001330  34.645800   1.513920   2.189010  28.370800  -0.004817   0.000928  19.859600   0.009324   0.003625  28.674200  -2.221820  -4.055250  40.260800  -0.001691   0.004618  26.813700   0.005918   0.000612  28.542500  -3.818780  -6.981030  42.991100  -0.001699   0.007364  28.632000   0.008949   0.005866  40.930000  -5.229490  -6.000160  61.806100   0.000538   0.002008  41.162800   0.013054   0.004957  -0.029102   4.134740   1.984410   0.440762   0.821415  10.659700  -3.673970  -2.487720   6.387520  -0.000000   0.000000  -0.000000   2.736820   2.639900  -4.800030  -1.416490   4.756250  -7.557730 -10.000900   0.889074   2.122960  -0.000000   0.000000   0.000000
  1.449220  90.151500  -2.389880  -1.572540  -4.345700  -5.590390  -0.305291   3.966390  -0.424015  -0.583136   7.934960  -0.829823   1.328820  -0.199822  -0.000139   2.184100  -0.404231   8.742240  -7.276900  -1.673950   6.626370 -71.572900  14.500600  -1.213540  -3.068990  -6.673600 -19.177600  12.337600   0.600763   8.666930  48.879800  39.134300 -79.781000 -19.091200   0.000806   0.013646  -4.545560   0.002785   0.005795 -31.403600   5.155410  -8.368970 -26.000700   0.002372   0.000291 -18.200400   0.005369  -0.000000 -28.761600   0.145887  -0.266401 -40.967800  -0.002703   0.003303 -27.284600  -0.001102   0.001904 -28.036700   0.090514  -0.169857 -32.243900  -0.005635   0.004249 -21.474400   0.000397   0.002761 -30.530500  -2.491770   4.222710 -45.932000  -0.006734   0.004092 -30.590600  -0.001691   0.002159  10.825600   2.316190   7.436270  68.122900   7.362310   2.902210   2.020780  -9.908640  13.594600 -16.854500 -15.567700  -0.679543 -38.161400  34.520200  72.855700  30.373100   0.000000  -0.006957  10.186500  -0.000882  -0.001317  34.730800   1.415240   2.040610  28.437200  -0.004853   0.000883  19.906100   0.009333   0.003654  28.671700  -2.239670  -4.086700  40.257600  -0.001723   0.004521  26.811600   0.005913   0.000588  28.545600  -3.824790  -6.983120  43.047800  -0.001601   0.007310  28.669700   0.008954   0.005851  40.949500  -5.240420  -5.999800  61.831100   0.000470   0.001937  41.179500   0.013144   0.004922  -0.026672   4.153910   1.985760   0.439292   0.830872  10.663700  -3.677370  -2.489120   6.381440   0.000000   0.000000  -0.000000   2.737880   2.660020  -4.794010  -1.407130   4.762260  -7.566640 -10.006700   0.881645   2.123040   0.000000   0.000000   0.000000
  1.444960  90.151500  -2.391840  -1.572140  -4.383180  -5.594000  -0.300194   3.998620  -0.440839  -0.571548   7.999440  -0.863780   1.314610  -0.204850  -0.000075   2.159810  -0.414801   8.829170  -7.310770  -1.673590   6.691230 -71.670200  14.687600  -1.151710  -3.197200  -6.847050 -19.757900  12.584100   0.777799   8.915380  49.006800  39.078900 -79.636100 -19.110300   0.000744   0.013653  -4.555120   0.002789   0.005787 -31.581700   5.098110  -8.227970 -26.140200   0.002378   0.000292 -18.298100   0.005376   0.000000 -28.761600   0.132625  -0.243339 -40.934700  -0.002690   0.003436 -27.262500  -0.001149   0.001980 -28.021300   0.102757  -0.194144 -32.148600  -0.005440   0.004319 -21.410900   0.000436   0.002807 -30.440800  -2.498310   4.244480 -45.803000  -0.006782   0.004188 -30.504800  -0.001731   0.002210  10.800400   2.297320   7.450730  68.180900   7.438200   2.895870   2.071920  -9.943060  14.168500 -17.264800 -16.122100  -1.088990 -38.215300  34.334000  72.523200  30.238700   0.000000  -0.007209  10.119300  -0.000870  -0.001304  34.838000   1.350390   1.943120  28.522500  -0.004898   0.000867  19.965800   0.009346   0.003692  28.671000  -2.244150  -4.093850  40.257200  -0.001762   0.004433  26.811300   0.005906   0.000582  28.564000  -3.825650  -6.983420  43.143900  -0.001496   0.007261  28.733800   0.008960   0.005837  40.999600  -5.242010  -5.996530  61.910300   0.000429   0.001896  41.232300   0.013233   0.004885  -0.024718   4.189140   1.986030   0.438377   0.838780  10.672200  -3.682820  -2.491260   6.378310  -0.000000   0.000000  -0.000000   2.739950   2.692540  -4.790240  -1.401440   4.770110  -7.572120 -10.013000   0.871336   2.123550   0.000000   0.000000   0.000000
